<svg xmlns="http://www.w3.org/2000/svg" viewBox="0 0 512 512" width="512" height="512">
  <defs>
    <linearGradient id="favGrad" x1="0%" y1="0%" x2="100%" y2="100%">
      <stop offset="0%" stop-color="#a855f7"/>
      <stop offset="50%" stop-color="#7c3aed"/>
      <stop offset="100%" stop-color="#ec4899"/>
    </linearGradient>
    <linearGradient id="favAccent" x1="0%" y1="0%" x2="100%" y2="100%">
      <stop offset="0%" stop-color="#fbbf24"/>
      <stop offset="100%" stop-color="#f59e0b"/>
    </linearGradient>
  </defs>
  <circle cx="256" cy="256" r="240" fill="url(#favGrad)"/>
  <path d="M 160 360 L 160 240 Q 160 130 256 130 Q 352 130 352 240 L 352 360" 
        fill="none" stroke="white" stroke-width="28" stroke-linecap="round"/>
  <path d="M 160 360 L 160 240 Q 160 130 256 130 Q 352 130 352 240 L 352 360" 
        fill="none" stroke="url(#favAccent)" stroke-width="8" stroke-linecap="round"/>
  <line x1="216" y1="360" x2="216" y2="190" stroke="white" stroke-width="18" stroke-linecap="round"/>
  <line x1="296" y1="360" x2="296" y2="190" stroke="white" stroke-width="18" stroke-linecap="round"/>
  <text x="256" y="315" text-anchor="middle" font-family="Cairo, system-ui, sans-serif" 
        font-weight="800" font-size="140" fill="white">G</text>
  <path d="M 256 80 L 268 110 L 300 110 L 274 130 L 284 160 L 256 142 L 228 160 L 238 130 L 212 110 L 244 110 Z" 
        fill="url(#favAccent)"/>
</svg>
